<svg id="Layer_1" data-name="Layer 1" xmlns="http://www.w3.org/2000/svg" viewBox="0 0 122.88 99.36">
  <defs>
    <style>.cls-1{fill-rule:evenodd;}</style>
  </defs>
  <title>car-trunk</title>
  <path class="cls-1" d="m0,11.44l33.85,0c9.25,0.05 17.12,2.17 23.74,6.15l15.86,12.19l7.21,5.55l2.34,1.81l25.42,1.67c5.18,-0.14 9.16,1.64 10.67,7.27l0,17.16c7.18,1.84 2.5,18.4 -0.72,22c-2.84,3.2 -5.42,2.83 -9.22,2.83l-22.64,0c4.35,-32.74 -29,-39.73 -42.77,-21.9c-4.54,5.89 -5.22,13.92 -3.34,23.36l-40.4,0l0,-78.09zm63.06,51.08a18.42,18.42 0 1 1 -18.42,18.42a18.42,18.42 0 0 1 18.42,-18.42zm2.16,9.63l0,6.63l6.64,0a9.07,9.07 0 0 0 -6.64,-6.63zm6.64,10.95l-6.64,0l0,6.64a9.07,9.07 0 0 0 6.64,-6.64zm-11,6.64l0,-6.64l-6.59,0a9.07,9.07 0 0 0 6.63,6.64l-0.04,0zm-6.63,-11l6.67,0l0,-6.59a9.08,9.08 0 0 0 -6.63,6.63l-0.04,-0.04zm-5.77,-34.63l3.46,-20.4l12.18,15.35l-2.29,2.59l-2.16,2.46l-11.19,0zm-36.63,-28.11l-4.16,27.91l36.93,0l3.66,-25c-15.21,-3.7 -21.58,-3 -36.43,-3l0,0.09z" id="svg_1"/>
</svg>